<?xml version="1.0" ?><!DOCTYPE svg  PUBLIC '-//W3C//DTD SVG 1.1//EN'  'http://www.w3.org/Graphics/SVG/1.1/DTD/svg11.dtd'><svg enable-background="new 1.2 3.5 484 501" height="501" version="1.1" viewBox="1.2 3.5 484 501" width="484" xml:space="preserve" xmlns="http://www.w3.org/2000/svg" xmlns:xlink="http://www.w3.org/1999/xlink"><defs/><ellipse cx="254.2" cy="478.5" opacity="0.39" rx="196" ry="26"/><path d="M278.9,268.4c3.7,5.8,7.4,11.6,9.1,17.4c1.7,5.8,1.3,11.6,0.8,17.6s-1.3,12.2-1.8,16.2c-0.5,4-0.9,5.8-1.2,7.5  c-32.3-10.9-64.7-21.8-80.8-27.3c-16.1-5.6-16-5.8-16-6c7.6-9,15.2-18,21.2-23.9c6-5.9,10.5-8.7,14.3-11.7c3.8-3,7.1-6.2,11.5-7.8  c4.4-1.6,10.1-1.6,15.5,0.2c5.4,1.8,10.7,5.5,15.9,9.1"/><path d="M248.5,248.6c0.9,0.6-0.3,2.1-0.3,3.1  c0.2,4.7,0.6,10.5,4.3,13.5c5.1,4.2,12.8-3.5,19.3-4.8c1-0.2,2.2,0.3,2.9,1c1,1,1.2,2.6,1.9,3.9c2,3.4,5.5,6.3,6.3,10.2  c0.2,1-0.2,2.2-1,2.9c-1,0.8-2.5,0.7-3.6,1.2c-6.2,2.6-12.6,4.6-18.1,8.4c-6.4,4.4-13.2,8.3-19.6,12.7c-1,0.7-2,1.6-3.1,2.2  s-2.5,0.6-3.6,1.2c-1.1,0.6-1.9,2.6-3.1,2.2c-3.2-1.1,1.1-6.6,1.7-9.9c1.5-7.3,4.1-14.2,5.6-21.5c0.8-4.1,0.9-8.3,1.7-12.3  c0.2-1,0.6-1.9,1-2.9c0.3-1,0.6-1.9,1-2.9c0.3-1,0.6-1.9,1-2.9c0.3-1,0.2-2.2,1-2.9C245,249.7,247,247.5,248.5,248.6z" fill="#FFFFFF" stroke="#000000" stroke-linejoin="round" stroke-width="4"/><path d="M237.8,275.5c5.8-3,12.1-10.7,17.5-8.9  c5.1,1.7,4.6,15,4.8,22.1" fill="#FFFFFF" stroke="#000000" stroke-linejoin="round" stroke-width="2"/><polyline fill="none" points="240.3,249 223.8,266.8 232.2,277.7   221.4,286.2 228.1,302.1 " stroke="#FFFFFF" stroke-linejoin="round" stroke-width="2"/><polyline fill="none" points="283.9,278.6 272,299.8 259.1,295.1   254.4,308.1 237.2,306.6 " stroke="#FFFFFF" stroke-linejoin="round" stroke-width="2"/><polygon points="246.1,267.7 256.1,271.8 257.1,277.5 248.8,279.4 248.8,295.1 231.5,305 237.8,282.2 243.6,278.1 242.6,272.4 "/><path d="M376.2,145.3c1.6-2.2,3.3-4.4,4.9-6.5l-0.2-0.9c0.4-0.2,0.9-0.4,1.3-0.5c7-9.1,14.2-17.7,22-23.6c10-7.6,21.1-10.9,32.3-9.4  c11.3,1.5,22.7,7.7,31.2,16.1c8.5,8.4,14,19.1,15.8,33.4c1.8,14.3-0.1,32.2-2.5,46.6c-2.3,14.4-5,25.2-9.2,43.7  c-4.2,18.5-9.8,44.6-15.5,70.7c-0.6-17.5-1.1-35-2-50.5c-0.7-13-1.6-24.7-2.9-36.3c-3,3.9-6,7.6-8.8,11  c-9.4,11.2-17.3,19.1-30.3,32.8c-13.1,13.7-31.3,33.2-49.5,52.8c8.5-15.3,17-30.6,24.2-44.3c7.2-13.7,13.2-25.9,18.8-38.8  c5.7-12.8,11-26.3,14-37.7c2.9-11.4,3.5-20.7,0.8-26.8s-8.4-8.7-14.5-11c-6.1-2.3-12.4-4.1-18.8-6l-1.7-5.9L376.2,145.3z"/><path d="M253.5,52.5c4.4,10.8,6.1,24.3,7.6,38c0.6,1.2,1.2,2.3,1.8,3.5l-19.1,12.7c-6.1-2.7-12.1-5.4-18.3-7.5  c-6.1-2.2-12.3-3.8-18.2-0.9c-5.9,2.9-11.5,10.4-16.6,21c-5.1,10.6-9.7,24.4-13.6,37.8c-3.9,13.5-7.2,26.6-10.6,41.8  c-3.3,15.2-6.7,32.3-10.1,49.5c-1.4-26.7-2.7-53.4-3.9-72.3c-1.1-18.6-2.1-29.7-2.1-44c-5.6,7.7-11.1,15.6-17,24.4  c-8.6,12.9-18,27.7-27.4,42.4c8.4-25.4,16.9-50.7,22.7-68.7c5.8-18,9-28.7,14.3-42.3c5.3-13.6,12.8-30,21.6-41.4  c8.8-11.4,19-17.7,30.6-20.7c11.6-2.9,24.6-2.4,35.1,2C240.9,32.4,248.7,40.9,253.5,52.5z"/><path d="M370.1,212.1c-11.5,16.1-22.4,27.3-35.8,34.4  c-6.6,3.5-19.8,7.3-30,7.6c-30.6,1.1-37.5-3.2-54.1-10.1c-12.8-5.4-41-26.1-45.8-33.1c-3-4.3-2.9-11-0.6-15.8  c2.2-4.5,6.3-7.9,9.4-11.9c3.4-4.5,4.7-10.3,5.8-15.8c1.9-9.4,0-19.3-2.2-28.7c-1.5-6.1-2.4-15.1,0.8-25.5  c6.5-20,17.7-31.4,32.8-37.9c10.7-4.5,23-3.6,34.6-3.9c20.6-0.5,42.7,3.7,60,14.8c6.5,4.1,11.5,10.2,16.7,15.8  c9,9.9,17.5,21.1,22,33.7c1.3,3.7,1.2,7.8,1.4,11.8c0.4,8.5,0.9,17.2-1,25.4C381.6,184.8,379.4,198.2,370.1,212.1z" fill="#FDE7D6" stroke="#904052" stroke-linejoin="round" stroke-width="9"/><path d="M288.2,191c0.5-2.5,2-4.8,3.6-6.7c4.1-4.9,10.5-7.5,16.6-9.3c11.5-3.3,26-0.3,35.2,7.4c3.8,3.1,5.6,8.6,5.7,13.5  c0.2,6.5-3.2,12.9-7,18.1c-0.6,0.8-1.6,1.4-1.7,2.3c-0.1,0.7-9.6,10.2-9.7,9.4c-0.1-0.9,6.9-7.2,7.4-8c0.6-0.9,1.2-1.8,1.6-2.8  c1.3-3.2,1.5-6.7,2-10.1c0.9-5.2,1.5-11-0.4-15.9c-1.6-4-6.5-6-10.5-7.7c-5.8-2.5-12.6-2.4-18.9-2.2c-4.8,0.1-9.9,0.4-14,2.7  c-3.5,1.9-7,4.2-9.1,7.6c-0.4,0.6-0.6,1.4-0.7,2.2C288.1,192.7,288,191.7,288.2,191z"/><path d="M218.7,127.4c9.9,3.3,19.5,8.6,26.7,15.6c4,3.9,6.2,9.2,10.9,12.3c0.6,0.4,1.5,0.5,2.3,0.5c0.8,0,1.7,0,2.1-0.5  c2.9-2.8,0-8.7-3.2-11.8c-6.9-6.9-18.5-8.5-27.9-12.3"/><path d="M344,176.6c-7.7-5.6-17-9.5-26.4-10.4c-5.3-0.5-10.8,1.4-15.8-0.3c-0.7-0.2-1.1-0.9-1.5-1.5s-0.8-1.3-0.7-2  c0.9-4.2,7.3-5.8,11.6-5.5c9.2,0.7,16.3,8.8,24.2,13.6"/><ellipse cx="211.3" cy="208.8" fill="#EF8F9C" rx="6.4" ry="12.1" stroke="#AD4D64" stroke-linejoin="round" stroke-width="3" transform="matrix(0.3188 -0.9478 0.9478 0.3188 -53.9703 342.4881)"/><path d="M342.2,185.8c1,0.3,1.9,0.9,2.9,1c1.1,0.1,2.3-0.2,3.4-0.5c1.2-0.3,2.6-2,3.6-1.2c0.8,0.6-1,1.8-1.7,2.7  c-0.7,0.9-1.6,1.6-2.4,2.4"/><path d="M332,177.5c3,1,6.4,1.5,9.4,0.8c1.2-0.3,2.5-0.5,3.6-1.2c1-0.6,1.6-3.2,2.4-2.4c0.9,0.9-0.7,2.5-1.2,3.6  c-0.4,1-1.1,1.8-1.7,2.7"/><path d="M333.8,54.3c-5.5-7.5-11-15-13.4-22.6c-2.4-7.6-1.8-15.3,0.6-20.1c2.4-4.8,6.4-6.7,14.7-7.3c8.3-0.5,20.8,0.4,32.9,3.4  c12.1,3,23.7,8.2,35.3,13.3c-8.5-1-17-2.1-25.9-2.5c-8.9-0.4-18.1,0-23.9,2.7c-5.8,2.8-8.2,8-9.8,12.6c-1.6,4.6-2.5,8.6-2.7,12.5  c-0.2,3.8,0.3,7.5,0.9,11.1"/><path d="M331.6,46.4c4.3,3.6,7.8,8,12.6,10.9c1.1,0.7,2.4,1,3.6,1.2c1.3,0.3,2.6,0.1,3.9,0.4  c11.6,2.4,23.4,6,33.5,12.2c10.4,6.5,20.1,16.5,23.1,27.9c2.1,8,3.6,16.6,1.9,24.6c-2.5,12-10.8,21.9-16.2,33l0,0.6l0,2.9l-0.1,2.9  l-0.1,2.9l-0.2,2.9l-0.2,1.9l-0.2,1l-0.5,2.9l-0.6,2.9l-0.6,2.8l-0.7,2.8l-0.7,2.8l-0.8,2.8l-0.8,2.8l-0.9,2.7l-0.9,2.7l-0.1,0.2  l-1.2,2.4l-1.3,2.5l-1.4,2.5l-1.4,2.5l-1.5,2.4l-1.5,2.4l-1.6,2.3l-1.6,2.3l-1.7,2.2l-0.5,0.6l-1.4,1.5l-1.9,2l-2,1.9l-2,1.9  l-2.1,1.8l-1,0.9l-1.1,0.8l-1.1,0.8l-0.9,0.6l-0.2,0.1l-1.2,0.7l-1.2,0.7l-1.2,0.7l-1.2,0.7l-1.2,0.6l-1.2,0.6l-1.2,0.6l-1.2,0.6  l-1.2,0.5l-0.7,0.3l-0.5,0.2l-1.3,0.4l-1.3,0.4l-1.3,0.4l-1.3,0.3l-1.3,0.3l-1.3,0.3l0.8-1l0.8-1l0.7-1l0.7-1l0.7-1l0.7-1l0.2-0.4  l0.4-0.6l0.6-1l0.6-1l0.2-0.4l0,0l-1.5,1.4l-1.5,1.4l-1.6,1.4l-1.6,1.3l-1.6,1.3l-1,0.7l-0.7,0.5l-1.7,1.1l-1.8,1.1l-1.8,1.1l-1.8,1  l-1.8,1l-1.8,0.9l-0.9,0.5l-1,0.4l-1.9,0.8l-1.9,0.7l-1.9,0.7l-1.9,0.6l1.1-1.6l1.1-1.6l1.1-1.6l1-1.6l0.5-0.8l0.5-0.8l1-1.6  l0.9-1.6l0.9-1.6l0.9-1.6l0.8-1.7l0.8-1.7l0.3-0.6l0.6-1l0.9-1.6l0.9-1.6l0.8-1.6l0.8-1.6l0.8-1.6l0.8-1.6l0.7-1.7l0.7-1.7l0.3-0.7  l0-1l-0.1-3.4l-0.2-3.4l-0.1-1.4l0.1-1.9l0.1-3.3l0-3.3l-0.1-3.3l-0.1-2.8l0-0.5l-0.2-3.3l-0.2-3.3l-0.3-3.2l-0.4-3.2l-0.5-3.2  l-0.5-3.2l0-0.2l-0.1-3l-0.2-3.1l-0.2-3.1l-0.3-3.1l-0.4-3.1l-0.4-3.1l-0.5-3.1l-0.1-0.7l-0.3-2.4l-0.2-1.5l-0.2-1.5l-0.2-1.5  l-0.3-1.5l-0.3-1.5l-0.3-1.5l-0.3-1.5l-0.3-1.5l-0.3-1.5l-0.4-1.5l-0.4-1.5l-0.4-1.5l-0.1-0.2l-0.2-1.3l-0.3-1.5l-0.3-1.5l-0.3-1.5  l-0.7-2.9l-0.7-2.9l-1.3-5.7l-0.7-2.8l-0.4-1.5l-0.2-1.3l-0.4-2.8l-0.2-1.4l-0.3-1.3l-0.3-1.3l-0.3-1.3l-0.3-1.3l-0.4-1.3l-0.3-0.9  l0-0.3l-0.2-1.4L318,91l-0.3-1.3l-0.4-1.3l-0.1-0.2l-0.3,1.4l-0.3,1.5l-0.3,1.6l-0.2,1.6l-0.2,1.4l-0.1,0.3l-0.4,1.6l-0.4,1.6  l-0.8,3.3l-0.7,3.3l-0.7,3.3l-0.7,3.1l-0.5,2.4l-0.2,0.6l-3.9,11l-1.9,5.5l-1,3l-1.1,2.5l-1.1,2.7l-1.1,2.7l-1.1,2.7l-1,2.7l-1,2.6  l-0.9,2.6l-0.2,0.7l-0.9,1.8l-1.2,2.5l-1.1,2.5l-1.1,2.5l-1,2.5l-0.9,2.5l-0.4,1.3l-0.4,1.3l-0.2,0.5l-0.3,0.8l-0.5,1.3l-0.5,1.3  l-0.4,1.3l-0.4,1.3l-0.4,1.3l-0.3,1.2l0.1,0.6l0.2,0.8l0.5,2.6l0.7,3.4l0.8,3.4l0.6,2.5l0.2,1l0.7,3.5l0.8,3.5l-2.9-2.4l-2.8-2.4  l-0.8-0.7l-1.6-1.5l-0.2,0.8l-0.3,1.5l-0.2,1.5l-0.2,1.5l-0.2,1.5l-1-1.3l-1-1.3l-0.9-1.3l-0.9-1.3l-0.5-0.8l-0.3-0.5l-0.8-1.4  l-0.8-1.4l-0.7-1.4l-0.7-1.5l-0.7-1.5l-0.6-1.5l-0.4-1.1l-0.1-0.4l-0.4-1.5l-0.2-1.1l-0.3-0.5l-1.1-1.5l-1-1.6l-1-1.6l-1-1.6  l-0.2-0.4l-0.6-0.4l-1.7-1.3l-1.7-1.3l-1-0.9l-0.6-0.5l-1.6-1.4l-1.6-1.5l-1.6-1.5l-1.6-1.5l-1.5-1.6l-0.2-0.2l-1.1-1.5l-1.3-1.7  l-1.2-1.7l-1.2-1.8l-1.2-1.8l-1.2-1.8l-1.1-1.8l-0.7-1.2l-0.4-0.7l-1.1-1.9l-1-1.9l-1-1.9l-1-2l-0.9-2l-0.9-2l-0.9-2l-0.8-2  l-0.8-2.1l-0.7-2.1l-0.2-0.6l-0.3-1.5l-0.4-2.1l-0.3-2.1l-0.3-2.2l-0.2-2.2l-0.1-1.4l-0.1-1.3l0-1.3l0-1.3l0-1.3l0.1-1.3l0.1-1.3  l0.1-1.3l0.1-1.2l0.2-1.2l0.2-1.2l0.2-1l-0.5,0.9l-1.5,3l-0.9,1.8l-0.7,1.1l-1.7,2.9l-1.6,2.9l-1.6,2.8l-1.5,2.8l-1.4,2.8l-1.4,2.8  l-0.6,1.4l-0.6,1.4l-0.1,0.2l-0.7,1.2l-0.7,1.4l-0.7,1.4l-0.7,1.4l-0.7,1.4l-0.6,1.4l-0.6,1.4l-0.6,1.4l-0.6,1.4l-0.5,1.4l-0.4,1.1  l-0.4,1.1l-0.3,1.1l-0.3,1.1l-0.3,1.1l-0.1,0.4l-0.3,0.8l-0.4,1.2l-0.3,1.2l-0.3,1.2l-0.3,1.2l-0.3,1.2l-0.3,1.2l-0.2,1.3l-0.2,1.3  l-0.2,1.3l-0.2,1.3l-0.2,1.3l-0.1,0.6l-0.1,0.7l-0.4,2.7l-0.4,2.7l-0.3,2.7l-0.2,2.8l0,0.4l-0.3,2.4l-0.3,2.9l-0.2,2.9l-1.6-2.5  l-1.6-2.5l-1.3-2.2l-0.2-0.4l-1.4-2.6l-1.4-2.7l-1.3-2.7l-1.2-2.8l-0.3-0.6l-0.3-0.8l-0.4-1.4l-0.4-1.5l-0.4-1.5l-0.4-1.5l-0.3-1.5  l-0.3-1.5l-0.3-1.5l-0.3-1.5l-0.2-1.5l-0.2-1.5l-0.2-1.5l-0.1-0.6L193,146l-0.1-1.5l-0.1-1.6l0-1.6l0-1.6l0-1.6l0.1-1.9l0.1-1.9  l0.2-1.9l0.2-1.9l0.2-1.9l0.3-1.9l0.3-1.9l0.3-1.9l0.4-1.9l0-0.1l0.6-1.7l0.6-1.8l0.7-1.8l1.4-3.5l1.4-3.4l1.5-3.4l1.5-3.3l1.6-3.3  l1.6-3.2l0.4-0.8l1.4-2.3l1.8-3l3.6-5.9l2.4-3.8l1.2-1.9l1.3-2l1.3-2l0.8-1.1l0.7-0.8l1-1.2c-1.8,0.2-3.7,0.5-5.5,0.9  c-8.8,1.9-17.8,3.8-25.9,7.6c-1.4,0.7-2.6,1.7-3.9,2.5c-1.7,1-3.1,3.1-5.1,3.1c-1.3,0,1.3-2.2,2.1-3.1c0.9-1,2.1-1.8,3-2.8  c2.5-2.9,4.4-6.3,7.1-9.1c8.1-8.4,16.9-16.3,26.9-22.6c17.2-10.7,37-21.2,57.8-20.8C297.1,26.9,317.1,34.3,331.6,46.4z" stroke="#000000" stroke-width="0"/><path d="M396.6,131.1c6.7,7.9,10.8,18.2,12.6,28.4c2.9,16.3-0.5,37.2-13.1,48c-4.5,3.8-9.7,6.7-15.1,9c-1.7,0.7-3.1,3-4.8,2.4  c-1.3-0.5,2-2,3-3c1-1,2.1-1.9,3-3c4.4-5.5,7-12.4,8.5-19.3c1.9-8.6-0.3-17.5-0.2-26.3c0-13.5-0.7-27.6-5.6-40.2"/><path d="M304.7,69c-0.7,8.6-5.6,16.5-6.4,25c-0.9,9.4,3,18.5,4.8,27.8c2.9,15.8,9.1,31.1,17.1,45c4.7,8.3,10.7,16.7,19,21.5  c1.7,1,3.3,3.3,5.1,2.7c1.4-0.4-0.2-2.9-0.6-4.2c-0.5-2-1.4-3.8-2.1-5.7c-3-8.2-5.4-16.7-6.6-25.4c-2.9-20.8-9-41-12.5-61.6  c-1.7-9.9-3.1-20.7,0.1-30.2"/><path d="M328.3,49.7c11.4-5.7,26-6.4,38.1-2.3c9.6,3.2,16.8,13.7,19.3,23.6c0.4,1.8,2.5,4.1,1.2,5.4c-1.1,1.1-1.7-2.7-2.7-3.9  c-2.7-3.3-6.6-6.4-10.9-6.7c-9.3-0.5-18.5,3.9-26.9,8.1"/><ellipse cx="320.4" cy="241.9" fill="#EF8F9C" rx="6.4" ry="12.1" stroke="#AD4D64" stroke-linejoin="round" stroke-width="3" transform="matrix(0.3188 -0.9478 0.9478 0.3188 -11.0723 468.4644)"/><path d="M256.7,243.3c-2.8,4.4-8.4,16.5-4.4,17.9  c2.9,1,5.9,5.2,8.9,4.6c3.2-0.6,3.4-1.8,4.8-4.8c2.4-4.9,10.1-6.2,11.9-11.3" fill="#FFFFFF" stroke="#000000" stroke-linejoin="round" stroke-width="9"/><path d="M58.7,420.5v-35.1H10.8c-2.7,0-5,3-5,6.7v21.8  c0,3.7,2.2,6.7,5,6.7H58.7z" fill="#FFFFFF" stroke="#000000" stroke-linejoin="round" stroke-width="9"/><path d="M70.2,340.1V305H22.3c-2.7,0-5,3-5,6.7v21.8  c0,3.7,2.2,6.7,5,6.7H70.2z" fill="#9EC5E9" stroke="#000000" stroke-linejoin="round" stroke-width="9"/><rect fill="#FFFFFF" height="223.2" stroke="#000000" stroke-linejoin="round" stroke-width="18" width="178.2" x="99.3" y="233.4"/><rect fill="#8B566C" height="223.2" stroke="#000000" stroke-linejoin="round" stroke-width="12" width="178.2" x="51.1" y="267.8"/><path d="M72.2,264.3c9.6-5.6,19.2-11.3,26.4-16.4  c7.2-5.1,12-9.7,16.7-14.3h162.1c-6.9,7.7-13.9,15.4-21.6,21.2c-7.7,5.8-16.1,9.7-24.5,13.6H71.7L72.2,264.3z" fill="#FFFFFF" stroke="#000000" stroke-linejoin="round" stroke-width="10"/><path d="M228.8,491.4c12.3-4,24.5-7.9,32.7-13.7  c8.1-5.8,12.1-13.4,16.1-21V233.3c-6.4,7.8-12.8,15.5-20.8,21.5c-8,6-17.7,10.1-27.4,14.3L228.8,491.4z" fill="#8B566C" stroke="#000000" stroke-linejoin="round" stroke-width="12"/><path d="M103.5,254.8h31.1V225c0-6-2.6-10.8-5.9-10.8  h-19.3c-3.3,0-5.9,4.8-5.9,10.8V254.8z" fill="#4ABED2" stroke="#000000" stroke-linejoin="round" stroke-width="9"/><line fill="none" stroke="#000000" stroke-linejoin="round" stroke-width="4" x1="249.8" x2="77.9" y1="257.8" y2="257.8"/><line fill="none" stroke="#000000" stroke-linejoin="round" stroke-width="4" x1="267.7" x2="133.8" y1="244.1" y2="244.1"/><rect fill="#FFFFFF" height="36" stroke="#000000" stroke-linejoin="round" stroke-width="10" width="130.7" x="75.3" y="288.1"/><path d="M298,281.8c-1.8-6.2-1.5-14.1-6.5-18.3  c-6.8-5.7-19.9-0.7-26.2,5.5c-4,3.9-8.1,10.6-5.6,15.6c1.9,3.7,9.8,3.2,10.3,7.3c0.5,3.9-4.7,7-4.7,11c0,3.9,7.9,4.4,8.4,8.2  c0.2,1.5-2,2.4-2.8,3.7c-2,3.1-4.3,8.2-1.9,11c4.6,5.2,14.3,7.7,20.6,4.6c1.6-0.8,2.6-2.4,3.7-3.7c1-1.1,2-2.4,2.8-3.7  c4.8-7.5,6.5-16.8,6.5-25.6C302.7,293.7,298.6,283.9,298,281.8z" fill="#FDE7D6" stroke="#904052" stroke-linejoin="round" stroke-width="9"/><path d="M270.2,290.5c8.5-2.1,17.3-3,26-3" fill="#FDE7D6" stroke="#904052" stroke-linejoin="round" stroke-width="6"/><path d="M271.9,307.9c9.5,2.2,19.8,1.8,29.4,0" fill="#FDE7D6" stroke="#904052" stroke-linejoin="round" stroke-width="6"/><path d="M76.2,230.5c-5.1-6.8-6-16.8-4-25  c2.6-10.5,13.8-18.2,24-22c10.1-3.8,23.8-2,32,5c5.3,4.5,6,13,6,20" fill="#FDE7D6" stroke="#904052" stroke-linejoin="round" stroke-width="9"/><path d="M103.2,186.5c8.9,8.9,15,20.8,18,33c1,3.9,2.6,8.9,0,12c-4.5,5.4-14.9-4.7-18-11c-3.5-7-9.3-12.7-14-19" fill="#FDE7D6"/><polygon fill="#904051" points="103.2,186.5 105.2,187.8 107,189.1 107.2,189.3 109,190.9   110.8,192.6 111.1,193 112.5,194.4 114.1,196.3 115.6,198.3 117.1,200.3 117.2,200.4 118.4,202.4 119.6,204.6 120.8,206.8   121.9,209.1 122.9,211.4 123.7,213.2 123.9,213.7 124.6,216.1 125.3,218.5 125.7,220 126.1,221.6 126.6,223.5 126.7,224.4   126.9,225.4 126.9,226.4 127,227.5 126.9,228.1 126.9,228.6 126.8,229.2 126.7,229.8 126.7,229.8 126.6,230.4 126.4,230.9   126.2,231.5 126,232.1 125.7,232.7 125.3,233.2 125,233.8 124.5,234.3 124.1,234.8 123.7,235.2 123.2,235.6 122.7,236 122.2,236.3   121.7,236.6 121.1,236.8 120.5,237 120,237.2 119.4,237.3 118.8,237.3 118.3,237.4 117.7,237.4 117.2,237.3 116.7,237.3   116.2,237.2 115.7,237.1 115.2,237 114.7,236.8 114.2,236.7 113.3,236.3 112.4,235.9 111.6,235.4 110.7,234.9 109.9,234.4   109.1,233.8 108.4,233.2 107.9,232.7 107.6,232.5 106.9,231.8 106.3,231.1 105,229.6 103.8,228.1 102.7,226.5 101.8,225   100.9,223.5 100.6,222.7 100.2,222 99.7,220.7 99.3,220 99.1,219.5 98.5,218.3 97.9,217 97.2,215.8 96.5,214.5 95,212 94.9,211.8   93.5,209.5 92,206.9 91.3,205.7 90.5,204.2 89.2,201.5 91.4,203.5 92.6,204.6 93.6,205.5 95.9,207.5 97.9,209.3 98.2,209.5   100.2,211.7 101.3,212.8 102.3,214 103.3,215.2 104.2,216.5 104.4,216.8 105.1,217.8 106,219.1 106.3,219.6 106.6,220.1   107.5,221.1 108.4,222.2 109.5,223.2 110.7,224.3 111.9,225.3 112.5,225.7 112.7,225.9 113,226.2 113.6,226.6 114.2,227   114.7,227.4 115.2,227.8 115.7,228 116.2,228.3 116.6,228.5 117,228.6 117.2,228.7 117.4,228.7 117.5,228.7 117.6,228.7   117.7,228.7 117.8,228.7 117.9,228.7 117.9,228.7 117.9,228.7 117.9,228.7 117.9,228.7 117.9,228.7 117.9,228.7 117.9,228.7   117.8,228.7 117.8,228.8 117.8,228.8 117.8,228.8 117.8,228.7 117.8,228.7 117.8,228.7 117.9,228.6 117.9,228.5 117.9,228.5   118,228.4 118,228.3 118,228.2 118,228.1 118.1,228 118.1,227.9 118.1,227.7 118.1,227.5 118.2,227.3 118.2,226.8 118.2,226.2   118.1,225.6 118,225 117.8,223.6 117.4,222.1 117.1,220.5 116.5,218.4 115.9,216.2 115.9,216.2 115.4,214 114.7,211.8 114,209.7   113.3,207.5 112.5,205.4 111.5,203.3 111.5,203.3 110.7,201.1 109.7,199 108.7,197 107.9,195.4 107.6,194.9 106.6,192.8   105.5,190.7 105.4,190.5 104.4,188.6 " stroke="#904051" stroke-width="0"/><path d="M121.2,188.5c4.1,0,8.2,0.6,12,2  c4.4,1.7,8.9,4.8,11,9c1.7,3.4,0.2,9-3,11c-3.6,2.2-7.8,4.5-12,4c-3.6-0.4-4.9-6.5-4-10" fill="#FDE7D6" stroke="#904052" stroke-linejoin="round" stroke-width="9"/><path d="M72.2,210.5c-2.3,9.1-4.1,20.9,2,28  c1.1,1.3,2.7,2,4,3s2.6,2.1,4,3c1.3,0.8,2.6,1.6,4,2c1.3,0.3,2.8,0.7,4,0c1.4-0.8,2.4-2.4,3-4c0.5-1.2,0-2.7,0-4c0-4,7.7-12,7.7-16" fill="#FDE7D6" stroke="#904052" stroke-linejoin="round" stroke-width="9"/><path d="M79.2,197.5c-3,6-4.5,14.3-1,20  c3.8,6.1,11,10.3,18,12" fill="#FDE7D6" stroke="#904052" stroke-linejoin="round" stroke-width="6"/><path d="M410.1,270.2c-24.8-4.3-48.6,9.2-58.3,31.3  l-18.5-3.2l-4.9,27.9l19.4,3.4c2.8,22.7,20.2,41.9,43.9,46c29.1,5.1,56.8-14.4,61.9-43.5C458.7,303,439.2,275.2,410.1,270.2z" fill="#FFFFFF" stroke="#000000" stroke-linejoin="round" stroke-width="7"/><path d="M390.6,344.5c17.3-5.7,34.6-11.3,47.1-18.7  c12.4-7.4,19.9-16.5,22.4-25.8c2.5-9.3,0-18.8-4.8-22.9c-4.8-4.1-12-3-18.7,0.4c-6.7,3.4-12.8,8.9-19,14.4  c-0.8-11.3-1.6-22.5-5.4-29.4c-3.8-6.9-10.7-9.5-17.1-6.6c-6.4,2.9-12.4,11.2-14,21.5c-1.6,10.3,1.1,22.6,3.4,34.1  C386.8,323,388.7,333.8,390.6,344.5z" fill="#E54B8E" stroke="#A53C4F" stroke-linejoin="round" stroke-width="7"/><path d="M247,163.7c1.2-2-0.9-5-2.8-6.4c-2.3-1.7-5.2-2.4-8-2.8c-1.6-0.2-3.4-0.8-4.8,0c-3.2,2-4.7,6.1-6,9.6  c-2,5.2-3.5,10.6-4.8,16c-0.6,2.6-0.4,5.3-0.4,8c0,1.6,0,3.2,0.4,4.8c0.1,0.6,0.7,1,0.8,1.6c0.1,0.5-0.1,1.1,0,1.6  c0.1,0.5,0.3,1.1,0.4,1.6c0.1,0.5-0.1,1.8,0.4,1.6c2.3-0.8,1.2-4.8,1.2-7.2c0-4.5,0.4-9.4,2.8-13.2c3.2-5,7.9-9.3,13.2-12  C241.8,165.7,245.6,166.1,247,163.7z" fill="#FFFFFF"/><path d="M308.2,177.7c-4,0-8.7,0.7-11.6,3.6c-6.5,6.5-9.2,16.8-9.2,26c0,4.4,1.2,8.9,3.2,12.8  c0.3,0.5,0.5,1.1,0.8,1.6c0.4,0.6,0.8,1,1.2,1.6c0.3,0.5,0.2,1.6,0.8,1.6c0.6,0,0.7-1,0.8-1.6c0.1-0.5,0.1-1.1,0-1.6  c-0.1-0.7-0.3-1.3-0.4-2c-0.1-0.7-0.3-1.3-0.4-2c-0.8-3.8-1.6-7.9-0.4-11.6c1.8-5.5,3.6-11.2,6.8-16c2.7-4.1,7.7-6.1,11.2-9.6" fill="#FFFFFF"/><path d="M224.5,168.1c0,0,2.7-10.1,2.9-10.8c0.2-0.8,0.3-1.7,0.8-2.4c2.4-3.3,6.6-6.1,10.6-6.1c6.5,0,11.6,7.1,14.5,12.9  c5,10.1,1.9,23.1-1.7,33.8c-2.4,7.3-6.4,16.1-13.7,18.5c-4.7,1.6-11.5-2.4-13.2-7.1c-3.3-9.5-0.6-20.8,3.6-29.9  c2.5-5.4,7.1-9.8,12-13.2c0.8-0.5,1.7-1,2.6-1.3c0.7-0.2,1.7,0.2,2.3-0.3c0.5-0.5,0.4-1.4,0.2-2.1c-1.1-2.8-4.7-3.7-7.6-4.7  c-2-0.7-4.6-1.8-6.3-0.5C229.7,156.2,224.5,168.1,224.5,168.1z"/><path d="M326.6,177.6c-7.1-4.7-18.6,1.2-24.7,7.5c-9.7,9.9-13.3,28.9-7.5,41.3c2.1,4.4,7.3,7.9,12,7.7c3.7-0.2,7.2-2.6,9.9-5.2  c12.6-11.9,20.8-33.6,15.7-50.1"/><ellipse cx="229.4" cy="181.3" fill="#FFFFFF" rx="3.7" ry="6.4" transform="matrix(0.3188 -0.9478 0.9478 0.3188 -15.6383 340.9395)"/><ellipse cx="297.5" cy="202.2" fill="#FFFFFF" rx="4.1" ry="9.8" transform="matrix(0.3187 -0.9478 0.9478 0.3187 11.0415 419.6854)"/></svg>